<svg width="72" height="72" viewBox="0 0 72 72" fill="none" xmlns="http://www.w3.org/2000/svg">
<rect width="72" height="72" rx="36" fill="#06C08E"/>
<path d="M25.9779 60C23.4562 60 21.4846 59.3371 20.0633 58.0114C18.6878 56.6857 18 54.8343 18 52.4571V19.5429C18 17.1657 18.6878 15.3143 20.0633 13.9886C21.4846 12.6629 23.4562 12 25.9779 12H35.6753C40.2144 12 44.2034 13.0057 47.6422 15.0171C51.1268 16.9829 53.809 19.7943 55.6889 23.4514C57.5687 27.0629 58.5087 31.2686 58.5087 36.0686C58.5087 40.8686 57.5687 45.0743 55.6889 48.6857C53.809 52.2971 51.1497 55.0857 47.7109 57.0514C44.2722 59.0171 40.2603 60 35.6753 60H25.9779ZM34.9875 56.7771C41.1773 56.7771 46.0145 54.9486 49.4991 51.2914C53.0296 47.6343 54.7948 42.56 54.7948 36.0686C54.7948 31.7714 53.9924 28.0686 52.3877 24.96C50.8288 21.8057 48.5592 19.4057 45.5789 17.76C42.5986 16.0686 39.0682 15.2229 34.9875 15.2229H25.5653C24.3732 15.2229 23.4103 15.6114 22.6767 16.3886C21.989 17.12 21.6451 18.1029 21.6451 19.3371V52.6629C21.6451 53.8971 21.989 54.9029 22.6767 55.68C23.4103 56.4114 24.3732 56.7771 25.5653 56.7771H34.9875Z" fill="white"/>
<path d="M44.5258 35.9748L38.0529 39.4839L38.0523 39.4843C37.6183 39.7323 37.3929 40.0414 37.3929 40.413C37.3929 40.6043 37.4567 40.8001 37.5814 40.9997C37.8065 41.3748 38.1102 41.5665 38.4913 41.5665C38.6948 41.5665 38.9147 41.4966 39.1504 41.3602C39.1504 41.3602 39.1505 41.3601 39.1506 41.3601L47.0179 36.9955L47.0185 36.9951C47.2531 36.8594 47.4284 36.716 47.5422 36.5643C47.6696 36.3987 47.7327 36.2017 47.7327 35.9748C47.7327 35.7484 47.6699 35.5573 47.5423 35.4036C47.4284 35.2396 47.253 35.0902 47.0185 34.9544L47.0179 34.9541L39.1508 30.5896C39.1507 30.5895 39.1506 30.5894 39.1504 30.5893C38.9379 30.4644 38.718 30.4014 38.4913 30.4014C38.1107 30.4014 37.8069 30.5865 37.5815 30.9496C37.4568 31.1493 37.3929 31.3451 37.3929 31.5364C37.3929 31.7156 37.4507 31.8874 37.5641 32.0514C37.678 32.2157 37.8415 32.3536 38.0531 32.4657C38.0532 32.4657 38.0532 32.4658 38.0533 32.4658L44.5258 35.9748Z" fill="white"/>
<path d="M37.5641 32.0514C37.4507 31.8874 37.3929 31.7156 37.3929 31.5364C37.3929 31.3451 37.4568 31.1493 37.5815 30.9496C37.8069 30.5865 38.1107 30.4014 38.4913 30.4014C38.718 30.4014 38.9379 30.4644 39.1504 30.5893C39.1506 30.5894 39.1507 30.5895 39.1508 30.5896L47.0179 34.9541L47.0185 34.9544C47.253 35.0902 47.4284 35.2396 47.5423 35.4036C47.6699 35.5573 47.7327 35.7484 47.7327 35.9748C47.7327 36.2017 47.6696 36.3987 47.5422 36.5643C47.4284 36.716 47.2531 36.8594 47.0185 36.9951L47.0179 36.9955L39.1506 41.3601C39.1505 41.3601 39.1504 41.3602 39.1504 41.3602C38.9147 41.4966 38.6948 41.5665 38.4913 41.5665C38.1102 41.5665 37.8065 41.3748 37.5814 40.9997C37.4567 40.8001 37.3929 40.6043 37.3929 40.413C37.3929 40.0414 37.6183 39.7323 38.0523 39.4843L38.0529 39.4839L44.5258 35.9748L38.0533 32.4658C38.0532 32.4658 38.0532 32.4657 38.0531 32.4657C37.8415 32.3536 37.678 32.2157 37.5641 32.0514ZM37.5641 32.0514L37.5926 32.0316" stroke="white"/>
<path d="M27.8489 42.4802L27.8494 42.4804L27.85 42.4806C28.0114 42.5427 28.1564 42.5746 28.2842 42.5746C28.5241 42.5746 28.7392 42.4988 28.9285 42.3477C29.1295 42.2092 29.2858 42.0147 29.3979 41.7655L35.8903 27.497L35.8905 27.4963C35.9654 27.3216 36.0034 27.1519 36.0034 26.9875C36.0034 26.7719 35.9335 26.5809 35.7944 26.416C35.6673 26.2387 35.4782 26.1071 35.2297 26.0199C35.0901 25.9567 34.9265 25.9258 34.7399 25.9258C34.513 25.9258 34.3045 25.9889 34.1154 26.115C33.9257 26.2415 33.7812 26.4244 33.6811 26.6618C33.681 26.6619 33.681 26.6621 33.6809 26.6622L27.2439 40.8749L27.2435 40.8758L27.2432 40.8767C27.1569 41.0986 27.1124 41.2866 27.1124 41.4395C27.1124 41.6546 27.1758 41.8569 27.3017 42.0456C27.4282 42.2354 27.6113 42.3801 27.8489 42.4802Z" fill="white" stroke="white"/>
</svg>
