<svg width="12" height="9" viewBox="0 0 12 9" fill="none" xmlns="http://www.w3.org/2000/svg">
<path d="M4.00002 6.78054L1.68668 4.46721C1.56203 4.34255 1.39297 4.27253 1.21668 4.27253C1.0404 4.27253 0.871334 4.34255 0.746682 4.46721C0.622031 4.59186 0.552002 4.76092 0.552002 4.93721C0.552002 5.02449 0.569195 5.11093 0.602598 5.19157C0.636001 5.27221 0.684961 5.34548 0.746682 5.40721L3.53335 8.19387C3.79335 8.45387 4.21335 8.45387 4.47335 8.19387L11.5267 1.14054C11.6513 1.01589 11.7214 0.846824 11.7214 0.67054C11.7214 0.494256 11.6513 0.325192 11.5267 0.20054C11.402 0.0758882 11.233 0.00585938 11.0567 0.00585938C10.8804 0.00585938 10.7113 0.0758882 10.5867 0.20054L4.00002 6.78054Z" fill="black"/>
</svg>
