<svg width="32" height="32" viewBox="0 0 32 32" fill="none" xmlns="http://www.w3.org/2000/svg">
<path d="M26.75 14H18C17.2044 14 16.4413 13.6839 15.8787 13.1213C15.3161 12.5587 15 11.7956 15 11V2.25C15 2.1837 14.9737 2.12011 14.9268 2.07322C14.8799 2.02634 14.8163 2 14.75 2H9C7.93913 2 6.92172 2.42143 6.17157 3.17157C5.42143 3.92172 5 4.93913 5 6V26C5 27.0609 5.42143 28.0783 6.17157 28.8284C6.92172 29.5786 7.93913 30 9 30H23C24.0609 30 25.0783 29.5786 25.8284 28.8284C26.5786 28.0783 27 27.0609 27 26V14.25C27 14.1837 26.9737 14.1201 26.9268 14.0732C26.8799 14.0263 26.8163 14 26.75 14Z" fill="black"/>
<path d="M26.2013 11.7872L17.2131 2.79905C17.1956 2.78167 17.1734 2.76985 17.1492 2.76507C17.1251 2.76029 17.1 2.76276 17.0772 2.77218C17.0545 2.7816 17.035 2.79754 17.0212 2.818C17.0075 2.83846 17.0001 2.86252 17 2.88717V11.0003C17 11.2655 17.1054 11.5199 17.2929 11.7074C17.4804 11.8949 17.7348 12.0003 18 12.0003H26.1131C26.1378 12.0002 26.1618 11.9928 26.1823 11.9791C26.2028 11.9653 26.2187 11.9458 26.2281 11.9231C26.2375 11.9003 26.24 11.8752 26.2352 11.8511C26.2304 11.8269 26.2186 11.8046 26.2013 11.7872Z" fill="black"/>
</svg>
