<svg width="25" height="24" viewBox="0 0 25 24" fill="none" xmlns="http://www.w3.org/2000/svg">
<path d="M5.3335 10C4.2335 10 3.3335 10.9 3.3335 12C3.3335 13.1 4.2335 14 5.3335 14C6.4335 14 7.3335 13.1 7.3335 12C7.3335 10.9 6.4335 10 5.3335 10ZM19.3335 10C18.2335 10 17.3335 10.9 17.3335 12C17.3335 13.1 18.2335 14 19.3335 14C20.4335 14 21.3335 13.1 21.3335 12C21.3335 10.9 20.4335 10 19.3335 10ZM12.3335 10C11.2335 10 10.3335 10.9 10.3335 12C10.3335 13.1 11.2335 14 12.3335 14C13.4335 14 14.3335 13.1 14.3335 12C14.3335 10.9 13.4335 10 12.3335 10Z" fill="black"/>
</svg>
