<svg width="27" height="24" viewBox="0 0 27 24" fill="none" xmlns="http://www.w3.org/2000/svg">
<path d="M25.5232 12.0012L10.0773 12.0012M7.1333 3.41849L25.4095 11.6588C25.4756 11.6884 25.5318 11.7364 25.5712 11.7972C25.6106 11.8579 25.6315 11.9288 25.6315 12.0012C25.6315 12.0736 25.6106 12.1445 25.5712 12.2053C25.5318 12.266 25.4756 12.3141 25.4095 12.3436L7.1333 20.5839C7.063 20.6143 6.98507 20.6225 6.91 20.6073C6.83493 20.592 6.76633 20.5542 6.71341 20.4988C6.66049 20.4434 6.62579 20.3732 6.61399 20.2975C6.60219 20.2218 6.61384 20.1444 6.64739 20.0755L9.91853 12.3363C9.9705 12.2323 9.99756 12.1175 9.99756 12.0012C9.99756 11.8849 9.9705 11.7702 9.91853 11.6661L6.6454 3.92893C6.61079 3.85981 6.59839 3.78169 6.60989 3.70525C6.62139 3.62882 6.65623 3.5578 6.70963 3.50193C6.76304 3.44605 6.83241 3.40804 6.90825 3.39311C6.98409 3.37817 7.06269 3.38704 7.1333 3.41849Z" stroke="black" stroke-width="2" stroke-linecap="round" stroke-linejoin="round"/>
</svg>
