<svg width="24" height="24" viewBox="0 0 24 24" fill="none" xmlns="http://www.w3.org/2000/svg">
<path d="M12 8.86957C11.3642 8.86957 10.7427 9.05316 10.2141 9.39714C9.68545 9.74112 9.27343 10.23 9.03013 10.802C8.78683 11.374 8.72317 12.0035 8.8472 12.6107C8.97124 13.218 9.2774 13.7758 9.72696 14.2136C10.1765 14.6514 10.7493 14.9495 11.3729 15.0703C11.9964 15.1911 12.6428 15.1291 13.2302 14.8921C13.8175 14.6552 14.3196 14.254 14.6728 13.7392C15.026 13.2244 15.2146 12.6191 15.2146 12C15.212 11.1705 14.8725 10.3757 14.2702 9.78918C13.6679 9.20265 12.8518 8.87204 12 8.86957ZM18.9402 12C18.9386 12.2925 18.9166 12.5846 18.8743 12.8742L20.8308 14.3658C20.916 14.4343 20.9734 14.5301 20.9928 14.6361C21.0122 14.742 20.9922 14.8512 20.9365 14.9442L19.0857 18.0558C19.0294 18.1479 18.9416 18.2178 18.8377 18.2531C18.7338 18.2884 18.6204 18.2868 18.5175 18.2487L16.2171 17.3487C15.7381 17.708 15.2139 18.0061 14.6572 18.2358L14.3133 20.6142C14.294 20.7207 14.2374 20.8174 14.153 20.8878C14.0687 20.9582 13.9618 20.9978 13.8508 21H10.1492C10.0402 20.9979 9.93509 20.9599 9.85109 20.8922C9.76709 20.8245 9.70915 20.731 9.68672 20.6271L9.34276 18.2487C8.78458 18.0216 8.26 17.723 7.78289 17.3609L5.48247 18.2609C5.37964 18.299 5.2663 18.3006 5.16238 18.2654C5.05847 18.2302 4.97062 18.1604 4.9143 18.0683L3.06351 14.9571C3.0078 14.8641 2.98784 14.7549 3.0072 14.649C3.02656 14.5431 3.08398 14.4473 3.16919 14.3787L5.12565 12.8871C5.08392 12.5931 5.06191 12.2968 5.05976 12C5.06143 11.7075 5.08344 11.4154 5.12565 11.1258L3.16919 9.63417C3.08398 9.56566 3.02656 9.46986 3.0072 9.36391C2.98784 9.25796 3.0078 9.14876 3.06351 9.05583L4.9143 5.94417C4.97056 5.85206 5.05838 5.78222 5.1623 5.74693C5.26622 5.71164 5.37959 5.71318 5.48247 5.75126L7.78289 6.65126C8.26191 6.29205 8.78612 5.99394 9.34276 5.76417L9.68672 3.38583C9.70597 3.27929 9.76261 3.18258 9.84697 3.1122C9.93133 3.04183 10.0382 3.00217 10.1492 3H13.8508C13.9598 3.00207 14.0649 3.04007 14.1489 3.1078C14.2329 3.17552 14.2909 3.26898 14.3133 3.37291L14.6572 5.75126C15.2161 5.97821 15.7414 6.2768 16.2191 6.63913L18.5175 5.73913C18.6204 5.70101 18.7337 5.69942 18.8376 5.73463C18.9415 5.76984 19.0294 5.83961 19.0857 5.93165L20.9365 9.0433C20.9922 9.13624 21.0122 9.24544 20.9928 9.35139C20.9734 9.45734 20.916 9.55313 20.8308 9.62165L18.8743 11.1133C18.9161 11.4072 18.9381 11.7034 18.9402 12Z" fill="black"/>
</svg>
